<svg xmlns="http://www.w3.org/2000/svg" width="20" height="20" viewBox="0 0 20 20">
    <g fill="none" fill-rule="evenodd">
        <g fill="#FFF" fill-rule="nonzero">
            <g>
                <g>
                    <path d="M256 10c-5.514 0-10 4.486-10 10s4.486 10 10 10 10-4.486 10-10-4.486-10-10-10zm0 1.55c4.66 0 8.45 3.79 8.45 8.45 0 4.66-3.79 8.45-8.45 8.45-4.66 0-8.45-3.79-8.45-8.45 0-4.66 3.79-8.45 8.45-8.45zm0 3.45c-.46 0-.833.373-.833.833l-.001 3.333h-3.333c-.425 0-.775.319-.827.73L251 20c0 .46.373.833.833.833h3.333v3.334c0 .425.319.775.73.827L256 25c.46 0 .833-.373.833-.833v-3.334h3.334c.425 0 .775-.318.827-.728L261 20c0-.46-.373-.833-.833-.833l-3.334-.001v-3.333c0-.425-.318-.775-.728-.827z" transform="translate(-782 -1070) translate(520 764) translate(16 296)"/>
                </g>
            </g>
        </g>
    </g>
</svg>
