<svg width="122" height="40" viewBox="0 0 122 40" fill="none" xmlns="http://www.w3.org/2000/svg">
<g clip-path="url(#clip0_4255_18924)">
<rect opacity="0.64" width="122" height="40" rx="4" fill="#1F2125"/>
<path d="M51.1601 13.44C52.358 13.44 53.0855 12.8178 53.538 12.1067L52.6508 11.6533C52.3668 12.1511 51.799 12.5156 51.1601 12.5156C49.9889 12.5156 49.1194 11.6178 49.1194 10.3733C49.1194 9.12889 49.9889 8.23112 51.1601 8.23112C51.799 8.23112 52.3668 8.60445 52.6508 9.09334L53.538 8.64C53.0944 7.92889 52.358 7.30667 51.1601 7.30667C49.4122 7.30667 48.0547 8.55112 48.0547 10.3733C48.0547 12.1956 49.4122 13.44 51.1601 13.44ZM55.2771 13.3333V10.3467L56.5636 13.3333H56.9363L58.214 10.3467V13.3333H59.1456V9.04H57.9212L56.75 11.8133L55.561 9.04H54.3455V13.3333H55.2771ZM62.2865 13.44C63.6618 13.44 64.4959 12.4178 64.4959 11.1822C64.4959 9.95556 63.6618 8.93334 62.2865 8.93334C60.929 8.93334 60.0861 9.95556 60.0861 11.1822C60.0861 12.4178 60.929 13.44 62.2865 13.44ZM62.2865 12.6133C61.4969 12.6133 61.0532 11.9467 61.0532 11.1822C61.0532 10.4267 61.4969 9.76 62.2865 9.76C63.0851 9.76 63.5287 10.4267 63.5287 11.1822C63.5287 11.9467 63.0851 12.6133 62.2865 12.6133ZM67.1488 13.3333V9.85778H68.3821V9.04H64.9927V9.85778H66.2172V13.3333H67.1488ZM70.0768 14.9689V12.7378C70.4228 13.2 70.9108 13.44 71.4521 13.44C72.5612 13.44 73.3508 12.5956 73.3508 11.1822C73.3508 9.76889 72.5612 8.93334 71.4521 8.93334C70.8931 8.93334 70.3962 9.2 70.0768 9.62667V9.04H69.1452V14.9689H70.0768ZM71.177 12.6133C70.7423 12.6133 70.2809 12.3467 70.0768 12.0356V10.3378C70.2809 10.0178 70.7423 9.76 71.177 9.76C71.9135 9.76 72.3837 10.3556 72.3837 11.1822C72.3837 12.0178 71.9135 12.6133 71.177 12.6133ZM75.1697 13.3333L77.175 10.3644V13.3333H78.1066V9.04H77.175L75.2052 11.9289V9.04H74.2736V13.3333H75.1697ZM81.0257 13.3333V9.85778H82.2591V9.04H78.8697V9.85778H80.0941V13.3333H81.0257ZM85.0007 13.44C85.6839 13.44 86.3139 13.2267 86.7398 12.8178L86.3139 12.2044C86.0122 12.5067 85.5153 12.6756 85.0983 12.6756C84.2909 12.6756 83.8029 12.1422 83.7319 11.4933H87.0415V11.2711C87.0415 9.92 86.2163 8.93334 84.9297 8.93334C83.6609 8.93334 82.7559 9.93778 82.7559 11.1822C82.7559 12.5422 83.7142 13.44 85.0007 13.44ZM86.1364 10.8356H83.7231C83.7674 10.3111 84.1312 9.69778 84.9297 9.69778C85.7726 9.69778 86.1187 10.3289 86.1364 10.8356ZM91.1761 13.3333V11.5467H93.1459V13.3333H94.0775V9.04H93.1459V10.7289H91.1761V9.04H90.2445V13.3333H91.1761ZM96.5175 13.44C97.0854 13.44 97.5823 13.2356 97.9017 12.8711V13.3333H98.8333V10.4889C98.8333 9.33334 97.9993 8.93334 97.0499 8.93334C96.3667 8.93334 95.7456 9.15556 95.2487 9.62667L95.6303 10.2756C96.0029 9.91112 96.4199 9.73334 96.899 9.73334C97.4935 9.73334 97.9017 10.0356 97.9017 10.5333V11.1733C97.5911 10.8089 97.0943 10.6222 96.5175 10.6222C95.8166 10.6222 95.0269 11.0311 95.0269 12.0178C95.0269 12.9689 95.8166 13.44 96.5175 13.44ZM96.8813 12.8C96.3578 12.8 95.9674 12.4978 95.9674 12.0356C95.9674 11.5644 96.3578 11.2622 96.8813 11.2622C97.2895 11.2622 97.6887 11.4133 97.9017 11.7067V12.3556C97.6887 12.6489 97.2895 12.8 96.8813 12.8Z" fill="white"/>
<path d="M52.3957 30.1867C55.1906 30.1867 56.5414 28.7556 56.5414 26.8578C56.5414 22.9845 50.5945 24.0889 50.5945 22.44C50.5945 21.8178 51.1224 21.3978 52.0696 21.3978C53.1254 21.3978 54.2434 21.7556 55.0819 22.5333L56.3085 20.9156C55.2837 19.9667 53.9173 19.4689 52.2714 19.4689C49.8337 19.4689 48.343 20.9 48.343 22.6267C48.343 26.5311 54.3055 25.2711 54.3055 27.1067C54.3055 27.6978 53.7155 28.2578 52.5044 28.2578C51.0758 28.2578 49.9424 27.62 49.2126 26.8578L48.017 28.5378C48.9797 29.5178 50.4082 30.1867 52.3957 30.1867ZM59.9574 30V24.9445C60.2525 24.5245 60.827 24.0578 61.5102 24.0578C62.3176 24.0578 62.6281 24.5556 62.6281 25.2556V30H64.6156V24.9289C64.8951 24.5245 65.4696 24.0578 66.1684 24.0578C66.9758 24.0578 67.2863 24.5556 67.2863 25.2556V30H69.2738V24.5711C69.2738 23.0311 68.4509 22.3 67.0689 22.3C65.9199 22.3 64.9262 22.9845 64.4914 23.6689C64.2119 22.8133 63.5132 22.3 62.4108 22.3C61.2617 22.3 60.268 23.0156 59.9574 23.4667V22.4867H57.9855V30H59.9574ZM73.3419 30.1867C74.3202 30.1867 75.2052 29.8289 75.7176 29.2222V30H77.6896V25.1467C77.6896 22.9845 76.1213 22.3 74.4133 22.3C73.2333 22.3 72.0532 22.6733 71.1371 23.4822L71.8824 24.8045C72.519 24.2133 73.2643 23.9178 74.0717 23.9178C75.0655 23.9178 75.7176 24.4156 75.7176 25.1778V26.1889C75.2207 25.5978 74.3357 25.2711 73.3419 25.2711C72.1463 25.2711 70.7334 25.94 70.7334 27.6978C70.7334 29.3778 72.1463 30.1867 73.3419 30.1867ZM74.1338 28.8489C73.3575 28.8489 72.7209 28.4445 72.7209 27.7444C72.7209 27.0133 73.3575 26.6089 74.1338 26.6089C74.7705 26.6089 75.3915 26.8267 75.7176 27.2622V28.1956C75.3915 28.6311 74.7705 28.8489 74.1338 28.8489ZM81.618 30V25.0378C81.9441 24.5556 82.8136 24.1822 83.4657 24.1822C83.6831 24.1822 83.8694 24.1978 84.0092 24.2289V22.3C83.0776 22.3 82.1459 22.8445 81.618 23.5133V22.4867H79.646V30H81.618ZM87.7513 30.1867C88.5742 30.1867 89.1021 29.9689 89.3971 29.7044L88.9779 28.2111C88.8692 28.32 88.5897 28.4289 88.2947 28.4289C87.86 28.4289 87.6115 28.0711 87.6115 27.6045V24.2133H89.1332V22.4867H87.6115V20.4333H85.624V22.4867H84.3818V24.2133H85.624V28.1333C85.624 29.4711 86.3693 30.1867 87.7513 30.1867ZM99.1172 30V21.5689H102.13V19.6245H93.869V21.5689H96.8968V30H99.1172ZM109.21 30L113.2 19.6245H110.685L107.828 27.6045L104.955 19.6245H102.44L106.446 30H109.21Z" fill="white"/>
<path d="M26.6915 21.0649H23.5432L25.1085 18.1141L26.6915 21.0649Z" fill="white"/>
<path fill-rule="evenodd" clip-rule="evenodd" d="M37.7091 11.9201C37.7091 11.4733 37.3429 11.1111 36.891 11.1111H11.909C11.4572 11.1111 11.0909 11.4733 11.0909 11.9201V26.7101L11.0984 26.8199C11.1526 27.2148 11.4948 27.5191 11.909 27.5191L21.1378 27.5188L21.1384 28.803L17.2218 29.5267C16.7892 29.6552 16.5438 30.1062 16.6732 30.5344C16.803 30.9622 17.2591 31.2049 17.6922 31.077L21.6676 30.3356H27.1539L31.1294 31.077C31.5596 31.204 32.0178 30.9647 32.1484 30.5344C32.2778 30.1062 32.0323 29.6552 31.5998 29.5267L27.6831 28.803L27.683 27.5188L36.891 27.5191C37.3429 27.5191 37.7091 27.1569 37.7091 26.7101V11.9201ZM22.5232 22.9772H27.7292L28.5237 24.4444H31.0546L25.1278 13.3333L19.201 24.4444H21.7319L22.5232 22.9772ZM23.4442 14.0841L17.9179 24.4444H18.4945L23.7335 14.6228L23.4442 14.0841ZM21.7623 14.8348L16.6364 24.4444H17.2131L22.0506 15.3754L21.7623 14.8348Z" fill="white"/>
</g>
<defs>
<clipPath id="clip0_4255_18924">
<rect width="122" height="40" fill="white"/>
</clipPath>
</defs>
</svg>
